<?xml version="1.0" encoding="utf-8"?>
<!-- Generator: Adobe Illustrator 16.0.0, SVG Export Plug-In . SVG Version: 6.00 Build 0)  -->
<!DOCTYPE svg PUBLIC "-//W3C//DTD SVG 1.1//EN" "http://www.w3.org/Graphics/SVG/1.1/DTD/svg11.dtd">
<svg version="1.1" id="Layer_1" xmlns="http://www.w3.org/2000/svg" xmlns:xlink="http://www.w3.org/1999/xlink" x="0px" y="0px"
	 width="277.122px" height="68.519px" viewBox="0 0 277.122 68.519" enable-background="new 0 0 277.122 68.519"
	 xml:space="preserve">
<path fill="#FFFFFF" stroke="#000000" stroke-miterlimit="10" d="M22.786,25.439c0,0-61.904,57.143,20.635,38.889l5.555-64.286
	l-5.555,64.286l0,0c0,0,19.047-76.19,35.714-6.349c0,0,41.271,13.916,36.508-23.995c0,0-38.095-28.387-27.778,29.55
	c0,0,26.19,5.186,30.952-29.55c0,0-2.381,20.026,9.524,27.169c0,0,38.095-21.429,16.667-34.127c0,0-21.428,5.555,2.381,36.508
	c0,0,16.666-23.016,13.492-34.127l-3.174,31.746c0,0,22.222-65.873,14.286,0c0,0,15.08-67.46,13.492,0.794
	c0,0,11.111-0.37,14.286-27.963c0,0-5.555,23.201,5.556,30.344s31.745-19.841,24.603-49.207c0,0-32.539,31.799,3.969,52.804
	c0,0,32.54-13.122,18.254-28.201c0,0-23.7,3.228,3.626,28.201c0,0,33.676-15.502,15.422-27.407c0,0-17.726,4.021,5.423,27.407"/>
<line fill="#FFFFFF" stroke="#000000" stroke-miterlimit="10" x1="196.611" y1="30.202" x2="203.944" y2="26.868"/>
</svg>
